<svg xmlns="http://www.w3.org/2000/svg" width="128" height="128" viewBox="0 0 128 128">
    <g fill="#4E6376" fill-rule="evenodd">
        <circle cx="64" cy="64" r="64" fill-rule="nonzero" opacity=".47"/>
        <path d="M83.11 51.945c.443 4.49-1.172 7.672-4.848 9.547 2.886.69 5.045 1.96 6.475 3.81 1.431 1.85 1.986 4.49 1.665 7.92-.172 1.75-.573 3.292-1.202 4.624-.63 1.333-1.425 2.43-2.387 3.294-.962.863-2.158 1.585-3.589 2.164a21.88 21.88 0 0 1-4.496 1.277c-1.566.271-3.36.456-5.383.555v9.435h-5.699v-9.287c-1.973 0-3.478-.012-4.514-.037v9.324h-5.698v-9.435c-.444 0-1.11-.006-1.998-.019-.889-.012-1.567-.018-2.036-.018H42l1.147-6.771h4.107c1.234 0 1.95-.63 2.146-1.888V61.566h.592a3.76 3.76 0 0 0-.592-.037v-10.62c-.32-1.677-1.418-2.516-3.293-2.516H42v-6.068l7.844.037c1.58 0 2.776-.013 3.59-.037V33h5.698v9.14a203.83 203.83 0 0 1 4.514-.074V33h5.699v9.325c1.948.172 3.675.45 5.18.832 1.505.382 2.898.937 4.181 1.665s2.3 1.69 3.053 2.886c.752 1.197 1.202 2.609 1.35 4.237zm-7.956 20.166c0-.888-.185-1.677-.555-2.368-.37-.69-.827-1.258-1.37-1.702-.542-.444-1.251-.82-2.127-1.129a17.978 17.978 0 0 0-2.424-.684c-.74-.148-1.652-.26-2.738-.333a39.866 39.866 0 0 0-2.553-.111c-.617 0-1.412.012-2.386.037-.975.024-1.56.037-1.758.037v12.507c.197 0 .654.006 1.369.018.715.012 1.307.019 1.776.019.469 0 1.123-.019 1.961-.056.839-.037 1.56-.086 2.165-.148a26.796 26.796 0 0 0 2.109-.315c.802-.148 1.486-.32 2.054-.518a12.586 12.586 0 0 0 1.757-.777c.605-.32 1.092-.69 1.462-1.11.37-.419.672-.912.906-1.48a4.898 4.898 0 0 0 .352-1.887zm-2.627-17.613c0-.814-.154-1.535-.463-2.164-.308-.63-.684-1.147-1.128-1.555-.444-.407-1.036-.752-1.776-1.036a12.717 12.717 0 0 0-2.036-.61 20.377 20.377 0 0 0-2.275-.296c-.9-.074-1.616-.105-2.146-.093a262.23 262.23 0 0 1-3.46.056v11.36c.123 0 .549.006 1.277.018.727.012 1.3.012 1.72 0 .42-.012 1.036-.037 1.85-.074a15.649 15.649 0 0 0 2.035-.204 37.319 37.319 0 0 0 1.906-.407c.728-.172 1.326-.4 1.795-.684.468-.284.925-.617 1.369-1a3.558 3.558 0 0 0 .999-1.424 5.138 5.138 0 0 0 .333-1.887z"/>
    </g>
</svg>
