<?xml version="1.0" encoding="UTF-8"?>
<svg width="16px" height="10px" viewBox="0 0 16 10" version="1.1" xmlns="http://www.w3.org/2000/svg" xmlns:xlink="http://www.w3.org/1999/xlink">
    <!-- Generator: Sketch 51.2 (57519) - http://www.bohemiancoding.com/sketch -->
    <title>ic_arrow left 2 copy 4</title>
    <desc>Created with Sketch.</desc>
    <defs></defs>
    <g id="Block-Explorer" stroke="none" stroke-width="1" fill="none" fill-rule="evenodd">
        <g id="Desktop-HD" transform="translate(-990.000000, -1325.000000)" fill="#747B81">
            <g id="Group-13" transform="translate(38.000000, 1146.000000)">
                <path d="M952.164602,183.616749 L956.927118,179.312728 C957.121998,179.136608 957.419931,179.141313 957.609154,179.323498 L958.3577,180.0442 C958.556627,180.235727 958.562625,180.552253 958.371097,180.75118 C958.359954,180.762754 958.348259,180.773784 958.336054,180.784231 L955.742939,183.003934 L967.255215,183.008837 C967.531277,183.008949 967.755011,183.232774 967.755011,183.508836 L967.755371,184.509525 C967.755371,184.785667 967.531513,185.009525 967.255371,185.009525 C967.255319,185.009525 967.255267,185.009525 967.255215,185.009525 L955.742939,185.005779 C957.581834,186.27447 958.58913,187.138121 958.764828,187.596732 C958.92441,188.013276 958.528858,188.437365 957.578173,188.868998 L957.578188,188.86903 C957.396416,188.951558 957.182974,188.918063 957.03522,188.783823 L952.163623,184.357779 C951.959238,184.172087 951.944084,183.855868 952.129776,183.651483 C952.140808,183.639341 952.152431,183.627749 952.164602,183.616749 Z" id="ic_arrow-left-2-copy-4" transform="translate(959.877607, 184.048728) scale(-1, 1) translate(-959.877607, -184.048728) "></path>
            </g>
        </g>
    </g>
</svg>